<?xml version="1.0" ?><!DOCTYPE svg  PUBLIC '-//W3C//DTD SVG 1.1//EN'
        'http://www.w3.org/Graphics/SVG/1.1/DTD/svg11.dtd'>
<svg enable-background="new 0 0 91 91" height="91px" id="Layer_1" version="1.1" fill="blue" viewBox="0 0 91 91" width="91px" xml:space="preserve" xmlns="http://www.w3.org/2000/svg" xmlns:xlink="http://www.w3.org/1999/xlink"><g><g><g><g><path d="M45.341,0.325C29.485,0.329,16.585,13.233,16.585,29.092c0,8.057,3.414,15.801,9.369,21.25      c0.037,0.033,0.074,0.066,0.111,0.096c0.15,0.123,0.346,0.291,0.553,0.473l0.135,0.113c3.41,3.111,6.027,8.359,6.92,13.721      h-0.527c-1.389,0-2.514,1.125-2.514,2.514v8.313c0,4.896,2.902,8.174,7.48,8.588l0.533,0.559      c0.434,3.514,3.018,5.805,6.703,5.805c3.688,0,6.273-2.291,6.709-5.805l0.531-0.559c4.578-0.414,7.479-3.693,7.479-8.588v-8.313      c0-1.389-1.125-2.514-2.512-2.514h-0.535c0.893-5.365,3.496-10.602,6.887-13.682l0.879-0.777      c5.93-5.426,9.332-13.15,9.332-21.194C74.118,13.233,61.21,0.329,45.341,0.325z M55.042,75.571c0,1.549-0.357,3.607-3.459,3.607      H51.47c-0.688,0-1.344,0.283-1.818,0.779l-1.861,1.953c-0.445,0.469-0.693,1.088-0.693,1.734c0,1.367-0.457,1.852-1.748,1.852      c-1.287,0-1.742-0.484-1.742-1.852c0-0.646-0.25-1.266-0.695-1.734l-1.861-1.953c-0.473-0.496-1.131-0.779-1.818-0.779h-0.115      c-3.1,0-3.459-2.059-3.459-3.607v-5.801h19.385V75.571z M61.429,46.55l-0.895,0.791c-4.434,4.025-7.664,10.609-8.6,17.404      H38.761c-0.938-6.787-4.18-13.383-8.674-17.479l-0.182-0.156c-0.225-0.195-0.436-0.377-0.607-0.52      c-4.887-4.496-7.688-10.871-7.688-17.499c0-13.088,10.646-23.738,23.73-23.742c13.098,0.004,23.752,10.654,23.752,23.742      C69.093,35.729,66.286,42.103,61.429,46.55z"/><path d="M55.729,31.733c0.742-1.244,1.051-2.695,0.896-4.279c-0.152-1.549-1.018-3.008-2.373-4.004      c-1.293-0.951-2.859-1.322-4.307-1.023c-2.244,0.467-4.182,2.387-4.805,4.676c-0.088-0.41-0.217-0.807-0.387-1.182      c-1.146-2.52-4.137-3.797-6.549-2.779c-0.994,0.424-1.848,1.199-2.465,2.236c-1.305,2.178-1.25,5.002-0.057,7.324      c-0.129,0.012-0.258,0.02-0.385,0.016c-1.896,0-3.793-1.176-4.623-2.871c-0.611-1.246-2.113-1.76-3.363-1.152      c-1.246,0.611-1.762,2.117-1.15,3.363c1.67,3.411,5.334,5.686,9.137,5.686c0.029,0,0.057,0,0.086,0      c1.605-0.014,3.182-0.438,4.592-1.18c2.039,0.834,4.449,0.99,6.75,0.383c0.779-0.203,1.586-0.43,2.393-0.703      c1.346,0.768,3.074,1.084,5.043,0.896c3.748-0.354,7.375-2.137,9.953-4.891c0.949-1.012,0.896-2.602-0.117-3.551      c-1.012-0.947-2.602-0.895-3.551,0.117C59.173,30.178,57.519,31.192,55.729,31.733z M39.944,29.756      c-0.01,0.02-0.02,0.041-0.031,0.061c-0.193-0.66-0.162-1.354,0.145-1.865c0.012-0.021,0.025-0.041,0.037-0.059      c0.037,0.033,0.068,0.07,0.084,0.102C40.354,28.383,40.263,29.075,39.944,29.756z M45.452,32.086      c-0.383,0.102-0.768,0.164-1.15,0.189c0.068-0.129,0.133-0.262,0.195-0.395c0.24-0.514,0.426-1.035,0.557-1.557      c0.127,0.621,0.33,1.191,0.572,1.717C45.567,32.055,45.509,32.071,45.452,32.086z M51.106,29.542      c-0.234,0.229-0.502,0.441-0.795,0.637c-0.33-0.59-0.439-1.082-0.344-1.65c0.09-0.543,0.627-1.104,0.982-1.18      c0.217,0,0.646,0.381,0.676,0.594C51.692,28.631,51.532,29.125,51.106,29.542z"/><path d="M45.349,38.948c-1.387,0-2.512,1.125-2.512,2.514v18.371c0,1.389,1.125,2.514,2.512,2.514      c1.389,0,2.514-1.125,2.514-2.514V41.462C47.862,40.073,46.737,38.948,45.349,38.948z"/></g></g></g></g></svg>