<?xml version="1.0" encoding="UTF-8"?>
<svg width="50px" height="69px" viewBox="0 0 50 69" version="1.1" xmlns="http://www.w3.org/2000/svg" xmlns:xlink="http://www.w3.org/1999/xlink">
    <!-- Generator: Sketch 47.1 (45422) - http://www.bohemiancoding.com/sketch -->
    <title>Page 1</title>
    <desc>Created with Sketch.</desc>
    <defs></defs>
    <g id="Page-1" stroke="none" stroke-width="1" fill="none" fill-rule="evenodd">
        <g id="Energy-Forcast" transform="translate(-78.000000, -1047.000000)" fill="#367CDC">
            <path d="M120.057836,1053.77036 C114.994016,1048.98245 108.167656,1046.55132 101.237547,1047.06843 C94.3373114,1047.55794 87.9453952,1050.90478 83.5869685,1056.30872 C79.2281919,1061.71539 77.2906858,1068.6981 78.2335192,1075.5954 C79.1763525,1082.48989 82.9201922,1088.68599 88.5685174,1092.70384 C89.0385558,1093.0201 89.3281988,1093.54261 89.3528243,1094.11188 L89.3528243,1103.32753 C89.3610235,1106.73486 91.8396461,1109.62522 95.1872396,1110.12853 L95.1872396,1112.84014 C95.1845112,1113.67616 95.5124356,1114.47917 96.0972623,1115.07323 C96.6848035,1115.66724 97.4827943,1116 98.3135538,1116 L107.70341,1116 C108.531441,1116 109.326662,1115.66724 109.914245,1115.07872 C110.501786,1114.48745 110.829724,1113.68715 110.829724,1112.85387 L110.829724,1110.14226 C114.180116,1109.63349 116.655954,1106.73767 116.658683,1103.32753 L116.658683,1094.13934 C116.672346,1093.57557 116.956553,1093.05029 117.421093,1092.7313 C123.564306,1088.36418 127.428684,1081.44512 127.942181,1073.89307 C128.453208,1066.34103 125.556449,1058.95725 120.057836,1053.79254 L120.057836,1053.77036 Z M113.411018,1087.3373 C111.151505,1088.95928 109.799598,1091.5925 109.783299,1094.41092 L109.783299,1097 L96.2586807,1097 L96.2586807,1094.46071 C96.2370066,1091.6423 94.8796551,1089.00632 92.6174373,1087.3871 C89.9867256,1085.50538 87.9006053,1082.93843 86.5785218,1079.94849 C85.2591433,1076.96151 84.7524903,1073.66789 85.1128,1070.41042 C85.5787959,1066.13584 87.4942425,1062.16259 90.5259071,1059.17257 C93.5602766,1056.1856 97.5184815,1054.37023 101.723597,1054.04144 C102.157079,1054.01381 102.587855,1054 103.013222,1054 L103.015934,1054 C107.784229,1054 112.35763,1055.93421 115.730462,1059.37432 C119.100797,1062.81443 120.997295,1067.47856 121,1072.34167 C121,1078.299 118.171552,1083.88581 113.411649,1087.33703 L113.411018,1087.3373 Z M111.693892,1070.44082 C112.102036,1071.24794 112.102036,1072.20263 111.693892,1073.01253 L105.08806,1085.60956 C104.554119,1086.71173 103.284973,1087.25445 102.113665,1086.8843 C100.942356,1086.51414 100.223912,1085.34238 100.427945,1084.13447 L101.372821,1078.22847 L97.688355,1078.05869 L97.3668695,1078.05869 L97.3640785,1078.05591 C96.4806769,1077.90005 95.7202959,1077.34063 95.3121592,1076.54462 C94.9040153,1075.74861 94.8956279,1074.8079 95.2897951,1074.00355 L101.945937,1061.37588 C102.485475,1060.28204 103.751815,1059.74489 104.920333,1060.11788 C106.08885,1060.48805 106.807294,1061.65418 106.611635,1062.85938 L105.666759,1068.75975 L109.359669,1068.92953 L109.675566,1068.92953 C110.54494,1069.09374 111.291366,1069.65314 111.693921,1070.44081 L111.693892,1070.44082 Z" id="Page-1"></path>
        </g>
    </g>
</svg>