<?xml version="1.0" encoding="UTF-8"?>
<svg width="53px" height="67px" viewBox="0 0 53 67" version="1.1" xmlns="http://www.w3.org/2000/svg" xmlns:xlink="http://www.w3.org/1999/xlink">
    <!-- Generator: Sketch 47.1 (45422) - http://www.bohemiancoding.com/sketch -->
    <title>Page 1</title>
    <desc>Created with Sketch.</desc>
    <defs></defs>
    <g id="Page-1" stroke="none" stroke-width="1" fill="none" fill-rule="evenodd">
        <g id="Energy-Forcast" transform="translate(-880.000000, -1047.000000)" fill="#40C4DB">
            <path d="M908.28182,1048.3393 C907.09238,1047.21818 905.20294,1047.21818 904.0107,1048.3393 C897.78182,1054.2893 880,1072.5607 880,1088.0286 C880,1106.7179 893.5786,1114 906.1786,1114 C918.7786,1114 932.3572,1106.7214 932.3572,1088.0286 C932.288838,1072.56 914.51,1054.2893 908.2807,1048.3393 L908.28182,1048.3393 Z M906.60021,1106.0207 C897.42881,1106.0207 888.12161,1099.29958 888.12161,1086.56 C888.12161,1084.73888 889.59273,1083.27056 891.41105,1083.27056 C893.23217,1083.27056 894.70049,1084.74168 894.70049,1086.56 C894.70049,1095.3814 900.86105,1099.4386 906.60049,1099.4386 C908.42161,1099.4386 909.88993,1100.90972 909.88993,1102.72804 C909.88993,1104.54916 908.42154,1106.02021 906.60049,1106.02021 L906.60021,1106.0207 Z" id="Page-1"></path>
        </g>
    </g>
</svg>
