<?xml version="1.0" encoding="UTF-8"?>
<svg width="44px" height="67px" viewBox="0 0 44 67" version="1.1" xmlns="http://www.w3.org/2000/svg" xmlns:xlink="http://www.w3.org/1999/xlink">
    <!-- Generator: Sketch 47.1 (45422) - http://www.bohemiancoding.com/sketch -->
    <title>Page 1</title>
    <desc>Created with Sketch.</desc>
    <defs></defs>
    <g id="Page-1" stroke="none" stroke-width="1" fill="none" fill-rule="evenodd">
        <g id="Energy-Forcast" transform="translate(-485.000000, -1048.000000)" fill="#614E4E">
            <g id="Page-1" transform="translate(485.000000, 1048.000000)">
                <path d="M10.0623324,17.6746476 C16.790995,10.5007255 27.9029458,11.8158997 33.0818218,20.0292054 C37.3008023,25.8327279 36.4462188,33.8274889 33.6694991,40.8916336 C29.2375296,50.1439188 33.456497,61.2590531 29.7174445,65.2581847 C16.2062478,75.6075709 -7.08325267,37.2797537 10.0622864,17.6753884 L10.0623324,17.6746476 Z" id="Fill-1"></path>
                <path d="M35.9126858,0.0105890312 C41.2270549,0.278245775 47.0947388,8.25935809 42.1127944,12.2763505 C39.0114123,14.7933451 33.6973157,14.4716299 29.9331951,11.846558 C25.0630576,6.91805027 30.2656742,-0.311152493 35.9124816,0.0103650231 L35.9126858,0.0105890312 Z" id="Fill-2"></path>
                <path d="M22.4386262,0.00786308434 C25.4605064,0.179204145 28.7427985,5.3000585 25.9287094,7.88690597 C24.1561397,9.49801708 21.1868161,9.32390983 19.1014701,7.59949813 C16.3424373,4.43521734 19.2591978,-0.224369529 22.4388185,0.00839368344 L22.4386262,0.00786308434 Z" id="Fill-3"></path>
                <path d="M12.2448282,3.02154466 C14.8978066,2.69301696 18.4352017,6.1937868 16.3903491,8.6012944 C15.1182819,10.1335221 12.4653035,10.4068915 10.4204509,9.42133527 C7.54699718,7.39760788 9.48300583,3.3501531 12.2448962,3.02161194 L12.2448282,3.02154466 Z" id="Fill-4"></path>
                <path d="M5.09768443,8.15604285 C7.25399003,7.38699604 10.9996446,9.58581907 9.75113959,12.0066218 C8.95786088,13.547354 6.80148549,14.3164684 4.8142061,13.8777187 C1.97907389,12.7228292 2.77235261,8.98056766 5.09771932,8.15604285 L5.09768443,8.15604285 Z" id="Fill-5"></path>
                <path d="M0.909173328,14.475969 C2.26117491,13.3755734 5.34750858,14.2447504 4.96790711,16.4482659 C4.75210072,17.7826472 3.39744998,18.8830428 1.93622061,19 C-0.281615781,18.707493 -0.552056035,15.6347719 0.909173328,14.4758977 L0.909173328,14.475969 Z" id="Fill-6"></path>
            </g>
        </g>
    </g>
</svg>
