<?xml version="1.0" encoding="utf-8"?>
<!-- Generator: Adobe Illustrator 21.0.2, SVG Export Plug-In . SVG Version: 6.00 Build 0)  -->
<svg version="1.1" id="Layer_1" xmlns="http://www.w3.org/2000/svg" xmlns:xlink="http://www.w3.org/1999/xlink" x="0px" y="0px"
	 viewBox="0 0 70 60" style="enable-background:new 0 0 70 60;" xml:space="preserve">
<style type="text/css">
	.st0{fill:#231F20;}
	.st1{fill:#FAC06A;}
	.st2{fill:#FAC06A;stroke:#FFFFFF;stroke-miterlimit:10;}
	.st3{fill:#FFFFFF;}
	.st4{fill:#D2D2D2;}
	.st5{fill:#B7B7B7;}
	.st6{fill:#60CCDB;}
	.st7{fill:none;stroke:#D2D2D2;stroke-width:2;stroke-linecap:round;stroke-miterlimit:10;}
	.st8{fill:#F87855;}
	.st9{fill:#D2D2D2;stroke:#FFFFFF;stroke-width:1.6;stroke-linecap:round;stroke-linejoin:round;stroke-miterlimit:10;}
	.st10{fill:none;stroke:#60CCDB;stroke-width:1.6;stroke-linecap:round;stroke-miterlimit:10;}
	.st11{fill:none;stroke:#60CCDB;stroke-width:2;stroke-linecap:round;stroke-miterlimit:10;}
	.st12{fill:none;stroke:#FFFFFF;stroke-width:5;stroke-linecap:round;stroke-miterlimit:10;}
	.st13{fill:#FFFFFF;stroke:#FFFFFF;stroke-width:5;stroke-miterlimit:10;}
	.st14{fill:#F8F8F8;}
	.st15{fill:#D2D2D2;stroke:#D2D2D2;stroke-width:0.4;stroke-miterlimit:10;}
	.st16{fill:#D2D2D2;stroke:#D2D2D2;stroke-width:1.6;stroke-linecap:round;stroke-miterlimit:10;}
	.st17{fill:#D4F9FC;}
	.st18{fill:none;stroke:#D2D2D2;stroke-width:1.6;stroke-linecap:round;stroke-miterlimit:10;}
	.st19{fill:none;stroke:#60CCDB;stroke-width:2.4;stroke-linecap:round;stroke-miterlimit:10;}
	.st20{fill:none;stroke:#60CCDB;stroke-width:2;stroke-linecap:round;stroke-linejoin:round;stroke-miterlimit:10;}
	.st21{fill:#60CCDB;stroke:#FFFFFF;stroke-width:2;stroke-linecap:round;stroke-miterlimit:10;}
	.st22{fill:#207EE1;}
</style>
<g>
</g>
<path class="st5" d="M48.6,12.3c-1.4,0-2.7,0.2-3.9,0.6c-2.9-3.3-7.1-5.4-11.8-5.4c-7,0-12.9,4.5-15,10.8c-5.6,0.3-10,4.9-10,10.6
	c0,5.8,4.7,10.6,10.6,10.6c0.3,0,30.8-0.2,30.8-0.2c8.4,0,13-6.5,13-13.4C62.2,18.4,56.1,12.3,48.6,12.3z"/>
<g>
	<g>
		<path class="st6" d="M28.3,54.8c-0.2,0-0.4-0.1-0.5-0.2c-0.5-0.3-0.6-0.9-0.3-1.4l5.7-8.9c0.3-0.5,0.9-0.6,1.4-0.3
			c0.5,0.3,0.6,0.9,0.3,1.4l-5.7,8.9C28.9,54.6,28.6,54.8,28.3,54.8z"/>
	</g>
	<g>
		<path class="st6" d="M15.6,54.8c-0.2,0-0.4-0.1-0.5-0.2c-0.5-0.3-0.6-0.9-0.3-1.4l5.7-8.9c0.3-0.5,0.9-0.6,1.4-0.3
			c0.5,0.3,0.6,0.9,0.3,1.4l-5.7,8.9C16.2,54.6,15.9,54.8,15.6,54.8z"/>
	</g>
	<g>
		<path class="st6" d="M24.3,50.9c-0.2,0-0.4,0-0.5-0.2c-0.5-0.3-0.6-0.9-0.3-1.4l3.1-4.9c0.3-0.5,0.9-0.6,1.4-0.3
			c0.5,0.3,0.6,0.9,0.3,1.4l-3.1,4.9C25,50.7,24.7,50.9,24.3,50.9z"/>
	</g>
	<g>
		<path class="st6" d="M49.8,50.9c-0.2,0-0.4,0-0.5-0.2c-0.5-0.3-0.6-0.9-0.3-1.4l3.1-4.9c0.3-0.5,0.9-0.6,1.4-0.3
			c0.5,0.3,0.6,0.9,0.3,1.4l-3.1,4.9C50.4,50.7,50.1,50.9,49.8,50.9z"/>
	</g>
	<g>
		<path class="st6" d="M37.1,50.9c-0.2,0-0.4,0-0.5-0.2c-0.5-0.3-0.6-0.9-0.3-1.4l3.1-4.9c0.3-0.5,0.9-0.6,1.4-0.3
			c0.5,0.3,0.6,0.9,0.3,1.4l-3.1,4.9C37.7,50.7,37.4,50.9,37.1,50.9z"/>
	</g>
	<g>
		<path class="st6" d="M41,54.8c-0.2,0-0.4-0.1-0.5-0.2c-0.5-0.3-0.6-0.9-0.3-1.4l5.7-8.9c0.3-0.5,0.9-0.6,1.4-0.3
			c0.5,0.3,0.6,0.9,0.3,1.4l-5.7,8.9C41.6,54.6,41.3,54.8,41,54.8z"/>
	</g>
</g>
</svg>
