<?xml version="1.0" encoding="utf-8"?>
<!-- Generator: Adobe Illustrator 21.0.2, SVG Export Plug-In . SVG Version: 6.00 Build 0)  -->
<svg version="1.1" id="Layer_1" xmlns="http://www.w3.org/2000/svg" xmlns:xlink="http://www.w3.org/1999/xlink" x="0px" y="0px"
	 viewBox="0 0 70 60" style="enable-background:new 0 0 70 60;" xml:space="preserve">
<style type="text/css">
	.st0{fill:#231F20;}
	.st1{fill:#FAC06A;}
	.st2{fill:#FAC06A;stroke:#FFFFFF;stroke-miterlimit:10;}
	.st3{fill:#FFFFFF;}
	.st4{fill:#D2D2D2;}
	.st5{fill:#B7B7B7;}
	.st6{fill:none;stroke:#60CCDB;stroke-width:2;stroke-linecap:round;stroke-miterlimit:10;}
	.st7{fill:#60CCDB;}
	.st8{fill:none;stroke:#D2D2D2;stroke-width:2;stroke-linecap:round;stroke-miterlimit:10;}
	.st9{fill:#F87855;}
	.st10{fill:#D2D2D2;stroke:#FFFFFF;stroke-width:1.6;stroke-linecap:round;stroke-linejoin:round;stroke-miterlimit:10;}
	.st11{fill:none;stroke:#60CCDB;stroke-width:1.6;stroke-linecap:round;stroke-miterlimit:10;}
	.st12{fill:none;stroke:#FFFFFF;stroke-width:5;stroke-linecap:round;stroke-miterlimit:10;}
	.st13{fill:#FFFFFF;stroke:#FFFFFF;stroke-width:5;stroke-miterlimit:10;}
	.st14{fill:#F8F8F8;}
	.st15{fill:#D2D2D2;stroke:#D2D2D2;stroke-width:0.4;stroke-miterlimit:10;}
	.st16{fill:#D2D2D2;stroke:#D2D2D2;stroke-width:1.6;stroke-linecap:round;stroke-miterlimit:10;}
	.st17{fill:#D4F9FC;}
	.st18{fill:none;stroke:#D2D2D2;stroke-width:1.6;stroke-linecap:round;stroke-miterlimit:10;}
	.st19{fill:none;stroke:#60CCDB;stroke-width:2.4;stroke-linecap:round;stroke-miterlimit:10;}
	.st20{fill:none;stroke:#60CCDB;stroke-width:2;stroke-linecap:round;stroke-linejoin:round;stroke-miterlimit:10;}
	.st21{fill:#60CCDB;stroke:#FFFFFF;stroke-width:2;stroke-linecap:round;stroke-miterlimit:10;}
	.st22{fill:#207EE1;}
</style>
<g>
</g>
<path class="st1" d="M35.6,39.5c-0.3,0-0.6,0-0.7,0h-4.4c-0.2,0-0.3-0.2-0.2-0.3l3.8-9.6c0.1-0.2-0.1-0.3-0.2-0.3
	c-0.1,0-0.1,0-0.2,0.1l-15,15.5c-0.1,0.1,0.4,0.1,1,0.1c0.7,0,1.5,0,1.6,0h5.3c0.2,0,0.3,0.2,0.2,0.3L21,56
	c-0.1,0.2,0.1,0.3,0.2,0.3c0.1,0,0.1,0,0.2-0.1l16.3-16.7C37.8,39.5,36.4,39.5,35.6,39.5z"/>
<path class="st5" d="M48.7,11.7c-1.4,0-2.7,0.2-3.9,0.6C41.9,9,37.7,6.9,33,6.9c-7,0-12.9,4.5-15,10.8C12.4,18,8,22.6,8,28.3
	c0,5.8,4.7,10.6,10.6,10.6c0.1,0,1.2,0,3,0l10.6-10.9c0.4-0.5,1-0.7,1.7-0.7c0.7,0,1.4,0.4,1.9,1c0.4,0.6,0.5,1.4,0.2,2.1l-2.9,7.2
	h1.8l0.1,0l0.6,0c2.2,0,3.3,0,3.9,1.3l0,0c5.5,0,9.9-0.1,9.9-0.1c8.4,0,13-6.5,13-13.4C62.3,17.8,56.3,11.7,48.7,11.7z"/>
</svg>
