<?xml version="1.0" encoding="utf-8"?>
<!-- Generator: Adobe Illustrator 21.0.2, SVG Export Plug-In . SVG Version: 6.00 Build 0)  -->
<svg version="1.1" id="Layer_1" xmlns="http://www.w3.org/2000/svg" xmlns:xlink="http://www.w3.org/1999/xlink" x="0px" y="0px"
	 viewBox="0 0 70 60" style="enable-background:new 0 0 70 60;" xml:space="preserve">
<style type="text/css">
	.st0{fill:#231F20;}
	.st1{fill:#D2D2D2;}
	.st2{fill:#B7B7B7;}
	.st3{fill:#60CCDB;}
	.st4{fill:#FAC06A;}
	.st5{fill:#FFFFFF;stroke:#FFFFFF;stroke-width:5;stroke-miterlimit:10;}
	.st6{fill:none;stroke:#FFFFFF;stroke-width:5;stroke-linecap:round;stroke-miterlimit:10;}
	.st7{fill:none;stroke:#60CCDB;stroke-width:2;stroke-linecap:round;stroke-miterlimit:10;}
	.st8{fill:#F8F8F8;}
	.st9{fill:none;}
	.st10{fill:#F87855;}
	.st11{fill:#D4F9FC;}
</style>
<g>
</g>
<g>
	<path class="st1" d="M47.9,34.9l-42.7,0c-0.3,0-0.6,0.1-0.8,0.3c-0.2,0.2-0.4,0.6-0.4,1c0,0.6,0.4,1.3,1.2,1.3h41
		c1.4,0,2.3,0,3,0.2c0.3,0.1,0.5,0.1,0.7,0.2l0.1,0c0,0,0.1,0,0.1,0c2.1,0.9,3.4,2.9,3.4,5.2c0,3.1-2.5,5.7-5.7,5.7
		c-2.5,0-4.7-1.7-5.4-4.1c-0.2-0.8-0.8-1.3-1.6-1.3c-0.3,0-0.6,0.2-0.8,0.4c-0.2,0.3-0.3,0.7-0.3,1.1c0.9,3.7,4.2,6.4,8.1,6.4
		c4.6,0,8.3-3.7,8.3-8.3C56.1,38.6,52.4,34.9,47.9,34.9z"/>
	<path class="st1" d="M14.2,27h27c0,0,0,0,0,0c0,0,0,0,0,0l0.5,0c0.1,0,0.1,0,0.2,0h0.4v0c0.1,0,0.1,0,0.2,0
		c5.1-0.4,8.1-3.4,8.1-8.2c0-4.6-3.7-8.3-8.3-8.3c-3.8,0-7.2,2.7-8.1,6.4c-0.1,0.4,0,0.8,0.3,1.1c0.2,0.3,0.5,0.4,0.9,0.4
		c0.9,0,1.3-0.6,1.5-1.3c0.7-2.4,2.9-4.1,5.4-4.1c3.1,0,5.7,2.5,5.7,5.7c0,2.2-1.3,4.3-3.4,5.2c0,0-0.1,0-0.1,0l-0.1,0
		c-0.2,0.1-0.5,0.2-0.7,0.2c-0.7,0.2-1.6,0.2-3,0.2H14.2c-0.8,0-1.2,0.7-1.2,1.3c0,0.4,0.1,0.7,0.4,1C13.5,26.9,13.8,27,14.2,27z"/>
	<path class="st1" d="M59.8,20.6c-2.7,0-5.1,2-5.7,4.7c0,0.1,0,0.2,0,0.3c0,0.7,0.6,1.3,1.3,1.3c0.6,0,1.1-0.4,1.3-1
		c0.3-1.5,1.6-2.7,3.2-2.7c1.8,0,3.2,1.4,3.2,3.2c0,1.7-1.5,3.2-3.3,3.2l-3.2,0l-46.4,0c-0.7,0-1.3,0.6-1.3,1.3s0.6,1.3,1.3,1.3
		h49.4c3.5,0,6-2.4,6-5.8C65.6,23.2,63,20.6,59.8,20.6z"/>
</g>
</svg>
