<?xml version="1.0" encoding="utf-8"?>
<!-- Generator: Adobe Illustrator 21.0.2, SVG Export Plug-In . SVG Version: 6.00 Build 0)  -->
<svg version="1.1" id="Layer_1" xmlns="http://www.w3.org/2000/svg" xmlns:xlink="http://www.w3.org/1999/xlink" x="0px" y="0px"
	 viewBox="0 0 70 60" style="enable-background:new 0 0 70 60;" xml:space="preserve">
<style type="text/css">
	.st0{fill:#231F20;}
	.st1{fill:#D2D2D2;}
	.st2{fill:#B7B7B7;}
	.st3{fill:#60CCDB;}
	.st4{fill:#FAC06A;}
	.st5{fill:#FFFFFF;stroke:#FFFFFF;stroke-width:5;stroke-miterlimit:10;}
	.st6{fill:none;stroke:#FFFFFF;stroke-width:5;stroke-linecap:round;stroke-miterlimit:10;}
	.st7{fill:none;stroke:#60CCDB;stroke-width:2;stroke-linecap:round;stroke-miterlimit:10;}
	.st8{fill:#F8F8F8;}
	.st9{fill:none;}
	.st10{fill:#F87855;}
	.st11{fill:#D4F9FC;}
</style>
<g>
</g>
<g>
	<g>
		<path class="st1" d="M45.5,25.2c-1.4,0-2.8,0.2-4.2,0.6c-3.1-3.5-7.5-5.7-12.6-5.7c-7.4,0-13.7,4.8-15.9,11.5
			C7,31.9,2.3,36.8,2.3,42.8C2.3,49,7.4,54,13.6,54c0.3,0,32.6-0.2,32.6-0.2C55.1,53.9,60,47,60,39.6C60,31.7,53.5,25.2,45.5,25.2z"
			/>
	</g>
	<g>
		<path class="st1" d="M57.1,13.1c-1.1,0-2.2,0.2-3.2,0.5c-2.3-2.6-5.7-4.3-9.5-4.3c-5.3,0-9.9,3.3-11.8,8c3.8,0.6,7.3,2.4,10.1,5.2
			c1.2-0.3,2.3-0.4,3.5-0.4C53.7,22,60,27,62,33.8c3.6-1.8,6-5.5,6-9.8C68,18,63.1,13.1,57.1,13.1z"/>
	</g>
</g>
</svg>
