<?xml version="1.0" encoding="utf-8"?>
<!-- Generator: Adobe Illustrator 21.0.2, SVG Export Plug-In . SVG Version: 6.00 Build 0)  -->
<svg version="1.1" id="Layer_1" xmlns="http://www.w3.org/2000/svg" xmlns:xlink="http://www.w3.org/1999/xlink" x="0px" y="0px"
	 viewBox="0 0 70 60" style="enable-background:new 0 0 70 60;" xml:space="preserve">
<style type="text/css">
	.st0{fill:#231F20;}
	.st1{fill:#D2D2D2;}
	.st2{fill:#B7B7B7;}
	.st3{fill:#60CCDB;}
	.st4{fill:#FAC06A;}
	.st5{fill:#FFFFFF;stroke:#FFFFFF;stroke-width:5;stroke-miterlimit:10;}
	.st6{fill:none;stroke:#FFFFFF;stroke-width:5;stroke-linecap:round;stroke-miterlimit:10;}
	.st7{fill:none;stroke:#60CCDB;stroke-width:2;stroke-linecap:round;stroke-miterlimit:10;}
	.st8{fill:#F8F8F8;}
	.st9{fill:none;}
	.st10{fill:#F87855;}
	.st11{fill:#D4F9FC;}
</style>
<g>
</g>
<g>
	<g>
		<path class="st2" d="M48.6,13.3c-1.4,0-2.7,0.2-3.9,0.6c-2.9-3.3-7.1-5.4-11.8-5.4c-7,0-12.9,4.5-15,10.8c-5.6,0.3-10,4.9-10,10.6
			c0,5.8,4.7,10.6,10.6,10.6c0.3,0,30.8-0.2,30.8-0.2c8.4,0,13-6.5,13-13.4C62.2,19.4,56.1,13.3,48.6,13.3z"/>
	</g>
	<g>
		<path class="st3" d="M31.1,44.4l-0.7,1c-0.4,0.5-0.2,1.3,0.3,1.7c0.2,0.1,0.4,0.2,0.7,0.2c0.4,0,0.8-0.2,1-0.5l0.7-1
			c0.4-0.5,0.2-1.3-0.3-1.7C32.2,43.7,31.4,43.8,31.1,44.4z"/>
		<path class="st3" d="M27.1,50.4l-0.7,1c-0.4,0.5-0.2,1.3,0.3,1.7c0.2,0.1,0.4,0.2,0.7,0.2c0.4,0,0.8-0.2,1-0.5l0.7-1
			c0.4-0.5,0.2-1.3-0.3-1.7C28.2,49.7,27.4,49.8,27.1,50.4z"/>
		<path class="st3" d="M23.1,44.4l-0.7,1c-0.4,0.5-0.2,1.3,0.3,1.7c0.2,0.1,0.4,0.2,0.7,0.2c0.4,0,0.8-0.2,1-0.5l0.7-1
			c0.4-0.5,0.2-1.3-0.3-1.7C24.2,43.7,23.4,43.8,23.1,44.4z"/>
		<path class="st3" d="M19.1,50.4l-0.7,1c-0.4,0.5-0.2,1.3,0.3,1.7c0.2,0.1,0.4,0.2,0.7,0.2c0.4,0,0.8-0.2,1-0.5l0.7-1
			c0.4-0.5,0.2-1.3-0.3-1.7C20.2,49.7,19.4,49.8,19.1,50.4z"/>
		<path class="st3" d="M40.7,44.1c-0.5-0.4-1.3-0.2-1.7,0.3l-0.7,1c-0.4,0.5-0.2,1.3,0.3,1.7c0.2,0.1,0.4,0.2,0.7,0.2
			c0.4,0,0.8-0.2,1-0.5l0.7-1C41.4,45.2,41.3,44.5,40.7,44.1z"/>
		<path class="st3" d="M35.1,50.4l-0.7,1c-0.4,0.5-0.2,1.3,0.3,1.7c0.2,0.1,0.4,0.2,0.7,0.2c0.4,0,0.8-0.2,1-0.5l0.7-1
			c0.4-0.5,0.2-1.3-0.3-1.7C36.2,49.7,35.4,49.8,35.1,50.4z"/>
		<path class="st3" d="M47.7,44.1c-0.5-0.4-1.3-0.2-1.7,0.3l-0.7,1c-0.4,0.5-0.2,1.3,0.3,1.7c0.2,0.1,0.4,0.2,0.7,0.2
			c0.4,0,0.8-0.2,1-0.5l0.7-1C48.4,45.2,48.3,44.5,47.7,44.1z"/>
		<path class="st3" d="M42.1,50.4l-0.7,1c-0.4,0.5-0.2,1.3,0.3,1.7c0.2,0.1,0.4,0.2,0.7,0.2c0.4,0,0.8-0.2,1-0.5l0.7-1
			c0.4-0.5,0.2-1.3-0.3-1.7C43.2,49.7,42.4,49.8,42.1,50.4z"/>
	</g>
</g>
</svg>
