<?xml version="1.0" encoding="utf-8"?>
<!-- Generator: Adobe Illustrator 21.0.2, SVG Export Plug-In . SVG Version: 6.00 Build 0)  -->
<svg version="1.1" id="Layer_1" xmlns="http://www.w3.org/2000/svg" xmlns:xlink="http://www.w3.org/1999/xlink" x="0px" y="0px"
	 viewBox="0 0 70 60" style="enable-background:new 0 0 70 60;" xml:space="preserve">
<style type="text/css">
	.st0{fill:#231F20;}
	.st1{fill:#D2D2D2;}
	.st2{fill:#B7B7B7;}
	.st3{fill:#60CCDB;}
	.st4{fill:#FAC06A;}
	.st5{fill:#FFFFFF;stroke:#FFFFFF;stroke-width:5;stroke-miterlimit:10;}
	.st6{fill:none;stroke:#FFFFFF;stroke-width:5;stroke-linecap:round;stroke-miterlimit:10;}
	.st7{fill:none;stroke:#60CCDB;stroke-width:2;stroke-linecap:round;stroke-miterlimit:10;}
	.st8{fill:#F8F8F8;}
	.st9{fill:none;}
	.st10{fill:#F87855;}
	.st11{fill:#D4F9FC;}
</style>
<g>
</g>
<g>
	<path class="st3" d="M52.7,43.8l-6.1-3.6l5.9-3.9c0.5-0.3,0.6-0.9,0.3-1.4s-0.9-0.6-1.4-0.3l-5.7,3.8v-7.8c0-0.6-0.4-1-1-1
		s-1,0.4-1,1v7.9l-6-3.5c-0.5-0.3-1.1-0.1-1.4,0.4c-0.3,0.5-0.1,1.1,0.4,1.4l6.1,3.6l-5.9,3.9c-0.5,0.3-0.6,0.9-0.3,1.4
		c0.2,0.3,0.5,0.4,0.8,0.4c0.2,0,0.4-0.1,0.5-0.2l5.7-3.8v7.8c0,0.6,0.4,1,1,1s1-0.4,1-1V42l6,3.5c0.2,0.1,0.3,0.1,0.5,0.1
		c0.3,0,0.7-0.2,0.9-0.5C53.3,44.7,53.1,44.1,52.7,43.8z"/>
	<g>
		<path class="st1" d="M48.6,14c-1.4,0-2.7,0.2-3.9,0.6c-2.9-3.3-7.1-5.4-11.8-5.4c-7,0-12.9,4.5-15,10.8c-5.6,0.3-10,4.9-10,10.6
			c0,5.8,4.7,10.6,10.6,10.6c0.2,0,10-0.1,18.5-0.1l0.9-0.6L35.3,39c-0.8-0.5-1.4-1.3-1.7-2.2c-0.2-0.9-0.1-1.9,0.4-2.7
			c0.5-0.8,1.3-1.4,2.2-1.7c0.9-0.2,1.9-0.1,2.7,0.4L41,34v-3.3c0-2,1.6-3.6,3.6-3.6s3.6,1.6,3.6,3.6v2.9l1.7-1.1
			c0.8-0.5,1.8-0.7,2.7-0.5c0.9,0.2,1.7,0.7,2.3,1.5c1.1,1.7,0.6,3.9-1,5l-2.4,1.6l0.9,0.5c6.4-1.4,9.8-7.1,9.8-13.1
			C62.2,20.1,56.1,14,48.6,14z"/>
	</g>
	<path class="st3" d="M29.6,51.7l-2.1-1.2l2-1.3c0.4-0.2,0.5-0.7,0.2-1.1c-0.2-0.4-0.7-0.5-1.1-0.2L26.8,49v-2.6
		c0-0.4-0.4-0.8-0.8-0.8s-0.8,0.4-0.8,0.8v2.7l-2-1.2c-0.4-0.2-0.9-0.1-1.1,0.3c-0.2,0.4-0.1,0.9,0.3,1.1l2.1,1.2l-2,1.3
		c-0.4,0.2-0.5,0.7-0.2,1.1c0.2,0.2,0.4,0.4,0.7,0.4c0.2,0,0.3,0,0.4-0.1l1.9-1.2v2.6c0,0.4,0.4,0.8,0.8,0.8s0.8-0.4,0.8-0.8v-2.7
		l2,1.2c0.1,0.1,0.3,0.1,0.4,0.1c0.3,0,0.5-0.1,0.7-0.4C30.1,52.4,29.9,51.9,29.6,51.7z"/>
</g>
</svg>
