<?xml version="1.0" encoding="UTF-8"?>
<svg width="60px" height="70px" viewBox="0 0 60 70" version="1.1" xmlns="http://www.w3.org/2000/svg" xmlns:xlink="http://www.w3.org/1999/xlink">
    <!-- Generator: Sketch 47.1 (45422) - http://www.bohemiancoding.com/sketch -->
    <title>Page 1</title>
    <desc>Created with Sketch.</desc>
    <defs></defs>
    <g id="Page-1" stroke="none" stroke-width="1" fill="none" fill-rule="evenodd">
        <g id="Energy-Forcast" transform="translate(-679.000000, -1048.000000)" fill="#B41A1A">
            <g id="Page-1" transform="translate(679.000000, 1048.000000)">
                <path d="M26.5089474,0 C31.8563684,0 35.4181579,2.10978409 37.3397368,5.07102273 C39.0112105,7.64694318 39.5292632,10.6920227 39.6341053,13.4479545 C40.4143263,13.6654636 41.1915,13.8643273 41.9038421,14.0694034 L43.3594737,9.59497159 C43.6308553,8.76841477 44.5097368,8.31476705 45.3331579,8.57583523 L56.46,12.2050966 C56.8609026,12.3355989 57.1908789,12.6214693 57.3821053,12.9974409 C57.5702211,13.3765227 57.6041447,13.8146114 57.4715368,14.2186227 L56.0653263,18.5688045 C56.7622816,18.8049591 57.4407474,19.0255705 58.2117474,19.2896852 C58.8624474,19.5040841 59.3003526,20.116242 59.2972737,20.8059807 L59.2972737,60.3798443 C59.2972737,65.6621398 54.9921947,70.0000716 49.7493789,70.0000716 L10.2512211,70.0000716 C5.00248421,70.0000716 0.703326316,65.6623784 0.703326316,60.3798443 L0.703326316,9.62029886 C0.703326316,4.33800341 5.00224737,7.15909091e-05 10.2512211,7.15909091e-05 L26.5089474,0 Z M26.5089474,3.18181818 L10.2505263,3.18181818 C6.71944737,3.18181818 3.86068421,6.07154545 3.86068421,9.62006818 L3.86068421,37.3862045 L56.1388421,37.3862045 L56.1388421,21.9496136 C48.0001579,19.1810341 44.5375263,18.0965909 37.6604211,16.1825682 C36.9819632,15.9930273 36.5101579,15.3747045 36.5008421,14.6662727 C36.5008421,11.9132841 36.0721816,8.92722727 34.6998947,6.81115909 C33.3244737,4.69509091 31.0948421,3.18189773 26.5091053,3.18189773 L26.5089474,3.18181818 Z M56.1386842,57.5710227 L3.86052632,57.5710227 L3.86052632,60.3799318 C3.86052632,63.928375 6.71928947,66.8181818 10.2503684,66.8181818 L49.7485184,66.8181818 C53.2702816,66.8181818 56.1383605,63.9284545 56.1383605,60.3799318 L56.1386842,57.5710227 Z" id="Fill-1"></path>
                <path d="M26.4844737,6.41295455 C28.1467105,6.41295455 29.5868684,7.12140227 30.5058947,8.17790909 C31.4249211,9.23441591 31.8381316,10.5642727 31.8381316,11.8817045 C31.8381316,13.1991364 31.4248895,14.5290568 30.5058947,15.5855 C29.5869,16.6419432 28.1467105,17.3504545 26.4844737,17.3504545 L12.3971053,17.3504545 C10.7348684,17.3504545 9.27007895,16.6420068 8.35105263,15.5855 C7.43202632,14.5289932 7.01881579,13.1991364 7.01881579,11.8817045 C7.01881579,10.5642727 7.43205789,9.23435227 8.35105263,8.17790909 C9.27004737,7.12146591 10.7348684,6.41295455 12.3971053,6.41295455 L26.4844737,6.41295455 Z M26.4844737,9.59477273 L12.3971053,9.59477273 C11.5335789,9.59477273 11.0895789,9.86821023 10.7441053,10.2659375 C10.3986316,10.6636648 10.1766711,11.2602557 10.1766711,11.8816648 C10.1766711,12.5030739 10.3987105,13.0996648 10.7441053,13.497392 C11.0895,13.8951193 11.5335789,14.1685568 12.3971053,14.1685568 L26.4844737,14.1685568 C27.348,14.1685568 27.792,13.8951193 28.1374737,13.497392 C28.4829474,13.0996648 28.6802368,12.5030739 28.6802368,11.8816648 C28.6802368,11.2602557 28.4828684,10.6636648 28.1374737,10.2659375 C27.7920789,9.86821023 27.348,9.59477273 26.4844737,9.59477273 Z" id="Fill-2"></path>
                <path d="M44.6147368,27.8902273 C45.0372316,27.887117 45.4412368,28.0518 45.7434474,28.3500955 C46.0425868,28.6483909 46.2121974,29.0585432 46.2121974,29.4811523 C46.2121974,29.9068477 46.0425868,30.3170159 45.7434474,30.6153114 C45.4412289,30.9136068 45.0372395,31.0782898 44.6147368,31.0720773 L15.3797368,31.0720773 C14.9572421,31.0782898 14.5501579,30.9136068 14.2510263,30.6153114 C13.9488079,30.3170159 13.7822763,29.9068636 13.7822763,29.4811523 C13.7822763,29.058567 13.9488079,28.6483909 14.2510263,28.3500955 C14.5501658,28.0518 14.9572342,27.887117 15.3797368,27.8902273 L44.6147368,27.8902273 Z" id="Fill-3"></path>
            </g>
        </g>
    </g>
</svg>