<?xml version="1.0" encoding="UTF-8"?>
<svg width="70px" height="70px" viewBox="0 0 70 70" version="1.1" xmlns="http://www.w3.org/2000/svg" xmlns:xlink="http://www.w3.org/1999/xlink">
    <!-- Generator: Sketch 47.1 (45422) - http://www.bohemiancoding.com/sketch -->
    <title>Page 1</title>
    <desc>Created with Sketch.</desc>
    <defs></defs>
    <g id="Page-1" stroke="none" stroke-width="1" fill="none" fill-rule="evenodd">
        <g id="Energy-Forcast" transform="translate(-277.000000, -1048.000000)" fill="#83D111">
            <path d="M312,1048 C292.6681,1048 277,1063.6681 277,1083 C277,1102.3319 292.6681,1118 312,1118 C331.3319,1118 347,1102.3319 347,1083 C347,1063.6681 331.3319,1048 312,1048 Z M316.755642,1104.46387 L316.755642,1109.80767 C316.755642,1111.01896 315.769303,1112 314.545308,1112 L312.334975,1112 C311.113739,1112 310.124641,1111.01896 310.124641,1109.80767 L310.124641,1104.95166 C305.703974,1104.76257 301.493377,1103.72396 298.777319,1102.40856 C298.291045,1102.17288 297.893185,1101.633 298.025805,1101.11232 L299.479108,1095.23142 C299.561998,1094.90805 299.755397,1094.63401 300.064843,1094.48876 C300.37429,1094.34627 300.71413,1094.35174 301.020839,1094.49425 C303.82241,1095.82059 307.42529,1096.91128 311.362371,1096.91128 C315.340972,1096.91128 318.059717,1095.3876 318.059717,1092.61979 C318.059717,1089.98627 315.824487,1088.31737 310.652094,1086.5854 C303.18152,1084.09162 298.1943,1080.63048 298.1943,1073.91131 C298.1943,1067.81391 303.490825,1063.03738 310.121614,1061.58518 L310.121614,1057.19232 C310.121614,1055.98104 311.110711,1055 312.331947,1055 L314.542281,1055 C315.763517,1055 316.752615,1055.98104 316.752615,1057.19232 L316.752615,1061.0974 C321.173282,1061.27826 323.767683,1062.04287 325.975187,1062.97732 C326.491854,1063.1993 326.765391,1063.75562 326.627239,1064.29819 L325.173936,1069.92696 C325.088288,1070.24758 324.870014,1070.51614 324.574381,1070.65867 C324.275982,1070.80391 323.92786,1070.81761 323.623902,1070.69155 C321.709222,1069.8941 318.827513,1068.85547 314.768421,1068.85547 C310.228926,1068.85547 308.761831,1070.79566 308.761831,1072.73585 C308.761831,1075.02134 311.20699,1076.47922 317.152611,1078.6935 C325.457807,1081.60652 328.999999,1085.41569 328.999999,1091.65592 C329.002765,1097.81358 323.385752,1103.08056 316.755104,1104.46471 L316.755642,1104.46387 Z" id="Page-1"></path>
        </g>
    </g>
</svg>